<svg width="34" height="22" viewBox="0 0 34 22" fill="none" xmlns="http://www.w3.org/2000/svg">
<path d="M22.4261 5.56018L17.5806 4.10643C17.2169 3.99791 16.843 3.9597 16.4726 3.97323V3.96076H10.5833L0.139648 0.490234L0.171223 15.1652L3.1692 16.6637L4.94426 12.3243L7.53734 13.3617L8.20969 11.6814L9.18345 12.6551L8.27496 13.5639C7.95921 13.8796 7.77826 14.3164 7.77826 14.7632C7.77826 15.6775 8.50739 16.421 9.41429 16.4531C9.44586 17.3393 10.1583 18.0517 11.0445 18.0833C11.0761 18.9695 11.7885 19.6819 12.6747 19.7135C12.7073 20.6204 13.4502 21.3495 14.3648 21.3495C14.8114 21.3495 15.2484 21.1685 15.5639 20.8528L16.4726 19.9443L16.8377 20.3094C17.1535 20.6251 17.5902 20.8061 18.037 20.8061C18.9516 20.8061 19.6948 20.077 19.7269 19.1701C20.6131 19.1385 21.3255 18.4261 21.3571 17.5399C22.2433 17.5083 22.9557 16.7959 22.9873 15.9097C23.8942 15.877 24.6236 15.1341 24.6236 14.2198C24.6236 14.1426 24.6111 14.0664 24.6008 13.9897L25.3806 13.2099L26.0107 14.4708L29.424 12.7639L31.4866 16.702L33.8613 15.1195V1.07476L22.4261 5.56018ZM2.60616 15.1673L1.25696 14.4925L1.22963 1.99758L7.18418 3.97668L2.60616 15.1673ZM6.93212 11.9488L5.35526 11.3184L8.21791 4.32002L9.77567 4.83795L6.93212 11.9488ZM8.86506 14.7632C8.86506 14.6027 8.92953 14.4458 9.04309 14.332L9.99855 13.3768C10.1121 13.2633 10.2692 13.1985 10.4294 13.1985C10.7654 13.1985 11.0386 13.4721 11.0386 13.8077C11.0386 13.968 10.9739 14.1251 10.8603 14.2386L9.90515 15.1941C9.79159 15.3076 9.63451 15.3721 9.47425 15.3721C9.13835 15.3721 8.86506 15.0988 8.86506 14.7632ZM10.4952 16.3934C10.4952 16.2328 10.5597 16.076 10.6733 15.9622L11.6287 15.007C11.7423 14.8935 11.8994 14.8287 12.0596 14.8287C12.3955 14.8287 12.6688 15.1023 12.6688 15.4379C12.6688 15.5982 12.6041 15.7553 12.4905 15.8688L11.5353 16.8243C11.4218 16.9378 11.2647 17.0023 11.1044 17.0023C10.7685 17.0023 10.4952 16.729 10.4952 16.3934ZM12.1254 18.0236C12.1254 17.863 12.1899 17.7062 12.3035 17.5924L13.2589 16.6372C13.3725 16.5237 13.5296 16.4589 13.6898 16.4589C14.0257 16.4589 14.299 16.7325 14.299 17.0681C14.299 17.2284 14.2343 17.3854 14.1207 17.499L13.1655 18.4545C13.052 18.568 12.8949 18.6325 12.7346 18.6325C12.3987 18.6325 12.1254 18.3592 12.1254 18.0236ZM15.7509 19.1292L14.7957 20.0847C14.6822 20.1982 14.5251 20.2627 14.3648 20.2627C14.0289 20.2627 13.7556 19.9894 13.7556 19.6538C13.7556 19.4932 13.8201 19.3364 13.9337 19.2226L14.8891 18.2674C15.0027 18.1538 15.1598 18.0891 15.32 18.0891C15.6559 18.0891 15.9292 18.3627 15.9292 18.6983C15.9292 18.8586 15.8645 19.0156 15.7509 19.1292ZM22.9276 14.8287C22.7673 14.8287 22.6103 14.7642 22.4967 14.6507L17.9436 10.0973L17.1752 10.8657L21.7283 15.4188C21.8419 15.5326 21.9066 15.6895 21.9066 15.85C21.9066 16.1856 21.6333 16.4589 21.2974 16.4589C21.1371 16.4589 20.9801 16.3944 20.8665 16.2809L16.3134 11.7275L15.545 12.4959L20.0981 17.049C20.2117 17.1628 20.2764 17.3196 20.2764 17.4802C20.2764 17.8158 20.0031 18.0891 19.6672 18.0891C19.5069 18.0891 19.3499 18.0246 19.2363 17.9111L14.6832 13.3577L13.9148 14.1261L18.4679 18.6792C18.5815 18.793 18.6462 18.9498 18.6462 19.1104C18.6462 19.446 18.3729 19.7193 18.037 19.7193C17.8768 19.7193 17.7197 19.6548 17.6061 19.5413L16.9932 18.9281C17.0041 18.8522 17.016 18.776 17.016 18.6983C17.016 17.7837 16.2866 17.0405 15.3797 17.0084C15.3482 16.1222 14.6357 15.4098 13.7495 15.3782C13.718 14.492 13.0055 13.7796 12.1193 13.748C12.0867 12.8411 11.344 12.1117 10.4294 12.1117C10.3522 12.1117 10.2761 12.1242 10.1997 12.1345L8.64828 10.5832L10.863 5.04756H14.074L12.0787 7.04311C11.758 7.3631 11.582 7.78922 11.582 8.24241C11.582 9.17743 12.3427 9.93814 13.278 9.93814C13.7246 9.93814 14.1616 9.75718 14.4771 9.44144L15.9168 8.00149C16.2113 7.70803 16.73 7.69662 17.0367 7.97761L18.3071 9.14215C18.7293 9.529 19.1984 9.85084 19.7004 10.1029L23.3585 13.7886C23.4721 13.9024 23.5368 14.0593 23.5368 14.2198C23.5368 14.5554 23.2635 14.8287 22.9276 14.8287ZM24.0802 12.9735L21.8466 10.723C22.0462 10.7418 22.2473 10.7532 22.45 10.7532V9.66644C21.1849 9.66644 19.9742 9.19548 19.0418 8.34058L17.7712 7.17657C17.054 6.51802 15.8374 6.54429 15.1489 7.23362L13.7095 8.67331C13.5954 8.78634 13.4383 8.85134 13.278 8.85134C12.9421 8.85134 12.6688 8.57805 12.6688 8.24241C12.6688 8.07923 12.7317 7.92666 12.8469 7.81124L14.9183 5.74007C15.527 5.1314 16.441 4.89977 17.2681 5.14759L22.0685 6.58754L24.8674 12.1863L24.0802 12.9735ZM26.4966 13.0128L23.2019 6.42303L25.6082 5.47899L28.9196 11.801L26.4966 13.0128ZM32.7746 14.5382L31.8886 15.1288L26.626 5.08019L32.7746 2.6686V14.5382Z" fill="#E3B873"/>
</svg>
