<svg width="113" height="113" viewBox="0 0 113 113" fill="none" xmlns="http://www.w3.org/2000/svg">
<g filter="url(#filter0_d_1_11115)">
<circle cx="56.5" cy="46.4424" r="36" fill="#E3B873"/>
</g>
<path d="M56.8396 53.7205C56.4614 53.7205 56.1526 54.0197 56.1526 54.3915V55.7162C56.1526 56.088 56.4614 56.3872 56.8396 56.3872C57.2178 56.3872 57.5265 56.088 57.5265 55.7162V54.3915C57.5265 54.0197 57.2178 53.7205 56.8396 53.7205Z" fill="white" stroke="white" stroke-width="0.1"/>
<path d="M73.5581 44.4429L73.5581 44.4429C73.1069 42.285 72.0951 40.251 70.6321 38.5603C69.2237 36.9327 67.4214 35.6514 65.4118 34.8438C65.0828 33.5078 64.3927 32.1302 63.0386 31.0928C61.7205 30.083 60.3931 29.8884 60.3338 29.88L60.3338 29.88C60.1374 29.8527 59.9377 29.9097 59.7872 30.037C59.6366 30.1643 59.5498 30.3493 59.5498 30.5443V33.8479H57.3254C56.736 31.9338 54.9142 30.5358 52.7634 30.5358C50.5652 30.5358 48.7096 31.9957 48.1632 33.9748C45.0152 34.4006 42.1197 35.8913 39.9692 38.2048L40.0059 38.2388L39.9692 38.2048C37.7 40.6463 36.45 43.8071 36.45 47.1049C36.45 54.4946 40.3839 60.5048 41.5891 62.1703C41.9705 62.6974 42.5945 63.0116 43.2582 63.0116H45.9692C47.0961 63.0116 48.015 62.1175 48.015 61.0158V60.2141C48.6849 60.3118 49.3649 60.3619 50.0457 60.3619H56.1528V61.0158C56.1528 62.1175 57.0717 63.0116 58.1986 63.0116H61.1765C62.134 63.0116 62.9756 62.3492 63.1767 61.4342L63.4969 59.9777C67.673 58.9761 71.0324 56.1196 72.6959 52.413H75.1837C75.9359 52.413 76.55 51.8161 76.55 51.0796V45.7802C76.55 45.4235 76.4075 45.0883 76.1493 44.8366C75.8912 44.585 75.5483 44.4466 75.1838 44.4466H75.1837H75.1837H75.1837H75.1836H75.1836H75.1836H75.1835L73.5592 44.4468C73.5587 44.4455 73.5584 44.4442 73.5581 44.4429ZM75.1762 51.0294H75.1761V51.0709H73.2111C73.5469 50.0273 73.7538 48.9314 73.8138 47.8021C73.8337 47.4308 73.5411 47.1163 73.1633 47.0972C72.7857 47.0785 72.4615 47.3612 72.4418 47.7325C72.1746 52.7551 68.6861 57.0487 63.8218 58.4989L64.6936 54.5326C64.7736 54.169 64.5358 53.8129 64.1656 53.7356C63.7961 53.6581 63.4301 53.8878 63.3503 54.2509L61.8334 61.1524C61.7678 61.451 61.4919 61.6695 61.1765 61.6695H58.1984C57.8268 61.6695 57.5266 61.375 57.5266 61.0157V58.366C57.5266 57.9942 57.2178 57.6949 56.8396 57.6949C56.4614 57.6949 56.1527 57.9942 56.1527 58.366V59.0198H50.0455C49.3637 59.0198 48.6831 58.9638 48.0148 58.855V54.3915C48.0148 54.0197 47.7061 53.7205 47.3279 53.7205C46.9497 53.7205 46.6409 54.0197 46.6409 54.3915V61.0158C46.6409 61.375 46.3407 61.6696 45.9691 61.6696H43.2582C43.0355 61.6696 42.8366 61.5695 42.7111 61.3958L42.7111 61.3958C41.5641 59.8106 37.8239 54.0967 37.8239 47.1049C37.8239 44.1415 38.9469 41.3011 40.9864 39.107L40.9498 39.0729L40.9864 39.107C42.8401 37.1126 45.3092 35.7984 48.0037 35.3562C48.0187 35.7442 48.0834 36.1277 48.195 36.4975H48.0074C47.6292 36.4975 47.3205 36.7967 47.3205 37.1685C47.3205 37.5403 47.6292 37.8396 48.0074 37.8396H57.5191C57.8974 37.8396 58.2061 37.5403 58.2061 37.1685C58.2061 36.7967 57.8974 36.4975 57.5191 36.4975H57.3315C57.4592 36.075 57.5258 35.6345 57.5266 35.1899H59.5498V36.5061C59.5498 36.8779 59.8585 37.1771 60.2367 37.1771C60.6149 37.1771 60.9237 36.8779 60.9237 36.5061V31.4321C61.5183 31.6613 62.343 32.1097 63.0288 32.9652C63.7404 33.8527 64.3056 35.1821 64.3056 37.1686C64.3056 37.5404 64.6144 37.8397 64.9926 37.8397C65.3708 37.8397 65.6795 37.5404 65.6795 37.1686C65.6795 36.9307 65.6716 36.6809 65.6536 36.423C67.1527 37.1479 68.4978 38.173 69.5829 39.4269C70.8977 40.9463 71.8068 42.7737 72.212 44.7115C72.3426 45.3364 72.9049 45.789 73.5487 45.7889L75.1762 45.7888V51.0294ZM52.7633 31.8779C54.6334 31.8779 56.1527 33.3611 56.1527 35.1815C56.1527 35.6363 56.0552 36.0846 55.871 36.4977H49.6555C49.4714 36.0844 49.3737 35.6363 49.3737 35.1815C49.3737 33.361 50.8931 31.8779 52.7633 31.8779Z" fill="white" stroke="white" stroke-width="0.1"/>
<path d="M64.4116 44.883L64.4116 44.883C64.815 43.8282 65.8808 43.1219 67.0621 43.1219C68.2433 43.1219 69.3093 43.8283 69.7125 44.883C69.7125 44.883 69.7125 44.883 69.7125 44.883L69.6658 44.9008C69.7887 45.2221 69.6211 45.5798 69.2915 45.6996L64.4116 44.883ZM64.4116 44.883C64.2784 45.2313 64.4605 45.6176 64.8155 45.7466M64.4116 44.883L64.8155 45.7466M64.8155 45.7466C65.17 45.8756 65.5657 45.7002 65.6986 45.3526L64.8155 45.7466ZM69.0691 45.7889C69.1488 45.7889 69.2297 45.7753 69.3086 45.7466L65.6986 45.3526C65.9011 44.823 66.4479 44.4639 67.062 44.4639C67.6761 44.4639 68.223 44.823 68.4255 45.3526C68.5289 45.623 68.7913 45.7889 69.0691 45.7889Z" fill="white" stroke="white" stroke-width="0.1"/>
<path d="M55.7116 47.5179C55.0601 47.0761 54.2201 46.8055 53.4502 46.5931V43.5142C54.0451 43.5914 54.5484 43.7637 54.9047 43.9764C55.2758 44.1981 55.4733 44.4544 55.4733 44.6828C55.4733 45.0547 55.7821 45.3539 56.1603 45.3539C56.5385 45.3539 56.8472 45.0547 56.8472 44.6828C56.8472 44.0273 56.4732 43.4411 55.8589 42.9979C55.254 42.5616 54.4127 42.2605 53.4502 42.1627V42.1367C53.4502 41.7649 53.1414 41.4656 52.7632 41.4656C52.385 41.4656 52.0763 41.7649 52.0763 42.1367V42.1627C51.1138 42.2605 50.2724 42.5616 49.6676 42.9979C49.0533 43.4411 48.6792 44.0273 48.6792 44.6828C48.6792 45.6104 49.1508 46.2413 49.8149 46.6917C50.4663 47.1335 51.3064 47.4042 52.0763 47.6165V50.6954C51.4814 50.6183 50.9781 50.446 50.6218 50.2332C50.2506 50.0115 50.0532 49.7552 50.0532 49.5268C50.0532 49.155 49.7444 48.8557 49.3662 48.8557C48.988 48.8557 48.6792 49.155 48.6792 49.5268C48.6792 50.1824 49.0533 50.7685 49.6676 51.2117C50.2724 51.6481 51.1138 51.9491 52.0763 52.0469V52.073C52.0763 52.4448 52.385 52.744 52.7632 52.744C53.1414 52.744 53.4502 52.4448 53.4502 52.073V52.0469C54.4127 51.9491 55.254 51.6481 55.8589 51.2117C56.4732 50.7685 56.8472 50.1824 56.8472 49.5268C56.8472 48.5992 56.3757 47.9683 55.7116 47.5179ZM52.0763 43.5142V46.2104C51.3286 45.9781 50.8248 45.7569 50.5067 45.5155C50.1827 45.2698 50.0532 45.0049 50.0532 44.6828C50.0532 44.4544 50.2506 44.1981 50.6218 43.9764C50.9781 43.7637 51.4814 43.5914 52.0763 43.5142ZM54.9047 50.2333C54.5484 50.446 54.045 50.6183 53.4502 50.6955V47.9993C54.1979 48.2316 54.7016 48.4528 55.0198 48.6942C55.3437 48.9399 55.4733 49.2048 55.4733 49.5268C55.4733 49.7553 55.2758 50.0116 54.9047 50.2333Z" fill="white" stroke="white" stroke-width="0.1"/>
<defs>
<filter id="filter0_d_1_11115" x="0.5" y="0.442383" width="112" height="112" filterUnits="userSpaceOnUse" color-interpolation-filters="sRGB">
<feFlood flood-opacity="0" result="BackgroundImageFix"/>
<feColorMatrix in="SourceAlpha" type="matrix" values="0 0 0 0 0 0 0 0 0 0 0 0 0 0 0 0 0 0 127 0" result="hardAlpha"/>
<feOffset dy="10"/>
<feGaussianBlur stdDeviation="10"/>
<feColorMatrix type="matrix" values="0 0 0 0 0.929412 0 0 0 0 0.752941 0 0 0 0 0.470588 0 0 0 0.2 0"/>
<feBlend mode="normal" in2="BackgroundImageFix" result="effect1_dropShadow_1_11115"/>
<feBlend mode="normal" in="SourceGraphic" in2="effect1_dropShadow_1_11115" result="shape"/>
</filter>
</defs>
</svg>
